<?xml version="1.0" encoding="UTF-8"?>
<svg xmlns="http://www.w3.org/2000/svg" xmlns:xlink="http://www.w3.org/1999/xlink" width="0" height="0">
<defs>
<symbol viewBox="0 0 24 24" fill="none" stroke="currentColor" stroke-width="2" stroke-linecap="round" stroke-linejoin="round" id="activity">
  <path d="M22 12h-4l-3 9L9 3l-3 9H2" ></path>
</symbol>
<symbol viewBox="0 0 24 24" fill="none" stroke="currentColor" stroke-width="2" stroke-linecap="round" stroke-linejoin="round" id="album">
  <rect width="18" height="18" x="3" y="3" rx="2" ry="2" ></rect>
  <polyline points="11 3 11 11 14 8 17 11 17 3" ></polyline>
</symbol>
<symbol viewBox="0 0 24 24" fill="none" stroke="currentColor" stroke-width="2" stroke-linecap="round" stroke-linejoin="round" id="arrow-down">
  <path d="M12 5v14" ></path>
  <path d="m19 12-7 7-7-7" ></path>
</symbol>
<symbol viewBox="0 0 24 24" fill="none" stroke="currentColor" stroke-width="2" stroke-linecap="round" stroke-linejoin="round" id="arrow-right">
  <path d="M5 12h14" ></path>
  <path d="m12 5 7 7-7 7" ></path>
</symbol>
<symbol viewBox="0 0 24 24" fill="none" stroke="currentColor" stroke-width="2" stroke-linecap="round" stroke-linejoin="round" id="arrow-up-right">
  <path d="M7 7h10v10" ></path>
  <path d="M7 17 17 7" ></path>
</symbol>
<symbol viewBox="0 0 21 20" fill="none" id="arrow-up">
<path d="M10.1107 15.8337V4.16699M10.1107 4.16699L4.27734 10.0003M10.1107 4.16699L15.944 10.0003" stroke="currentColor" stroke-width="1.5" stroke-linecap="round" stroke-linejoin="round"></path>
</symbol>
<symbol viewBox="0 0 24 24" fill="none" stroke="currentColor" stroke-width="2" stroke-linecap="round" stroke-linejoin="round" class="lucide lucide-at-sign" id="at-sign"><circle cx="12" cy="12" r="4"></circle><path d="M16 8v5a3 3 0 0 0 6 0v-1a10 10 0 1 0-4 8"></path></symbol>
<symbol viewBox="0 0 24 24" fill="none" stroke="currentColor" stroke-width="2" stroke-linecap="round" stroke-linejoin="round" id="award">
  <path d="m15.477 12.89 1.515 8.526a.5.5 0 0 1-.81.47l-3.58-2.687a1 1 0 0 0-1.197 0l-3.586 2.686a.5.5 0 0 1-.81-.469l1.514-8.526" ></path>
  <circle cx="12" cy="8" r="6" ></circle>
</symbol>
<symbol viewBox="0 0 24 24" fill="none" stroke="currentColor" stroke-width="2" stroke-linecap="round" stroke-linejoin="round" id="bell-dot">
  <path d="M10.268 21a2 2 0 0 0 3.464 0" ></path>
  <path d="M13.916 2.314A6 6 0 0 0 6 8c0 4.499-1.411 5.956-2.74 7.327A1 1 0 0 0 4 17h16a1 1 0 0 0 .74-1.673 9 9 0 0 1-.585-.665" ></path>
  <circle cx="18" cy="8" r="3" ></circle>
</symbol>
<symbol viewBox="0 0 24 24" fill="none" stroke="currentColor" stroke-width="2" stroke-linecap="round" stroke-linejoin="round" id="blend">
  <circle cx="9" cy="9" r="7" ></circle>
  <circle cx="15" cy="15" r="7" ></circle>
</symbol>
<symbol viewBox="0 0 24 24" fill="none" stroke="currentColor" stroke-width="2" stroke-linecap="round" stroke-linejoin="round" id="blocks">
  <rect width="7" height="7" x="14" y="3" rx="1" ></rect>
  <path d="M10 21V8a1 1 0 0 0-1-1H4a1 1 0 0 0-1 1v12a1 1 0 0 0 1 1h12a1 1 0 0 0 1-1v-5a1 1 0 0 0-1-1H3" ></path>
</symbol>
<symbol viewBox="0 0 24 24" fill="none" stroke="currentColor" stroke-width="2" stroke-linecap="round" stroke-linejoin="round" id="book-marked">
  <path d="M10 2v8l3-3 3 3V2" ></path>
  <path d="M4 19.5v-15A2.5 2.5 0 0 1 6.5 2H19a1 1 0 0 1 1 1v18a1 1 0 0 1-1 1H6.5a1 1 0 0 1 0-5H20" ></path>
</symbol>
<symbol viewBox="0 0 24 24" fill="none" stroke="currentColor" stroke-width="2" stroke-linecap="round" stroke-linejoin="round" id="book-open-text">
  <path d="M2 3h6a4 4 0 0 1 4 4v14a3 3 0 0 0-3-3H2z" ></path>
  <path d="M22 3h-6a4 4 0 0 0-4 4v14a3 3 0 0 1 3-3h7z" ></path>
  <path d="M6 8h2" ></path>
  <path d="M6 12h2" ></path>
  <path d="M16 8h2" ></path>
  <path d="M16 12h2" ></path>
</symbol>
<symbol viewBox="0 0 20 20" fill="none" id="book-open">
<path d="M10.0013 5.83333C10.0013 4.94928 9.65011 4.10143 9.02499 3.47631C8.39987 2.85119 7.55202 2.5 6.66797 2.5H1.66797V15H7.5013C8.16434 15 8.80023 15.2634 9.26907 15.7322C9.73791 16.2011 10.0013 16.837 10.0013 17.5M10.0013 5.83333V17.5M10.0013 5.83333C10.0013 4.94928 10.3525 4.10143 10.9776 3.47631C11.6027 2.85119 12.4506 2.5 13.3346 2.5H18.3346V15H12.5013C11.8383 15 11.2024 15.2634 10.7335 15.7322C10.2647 16.2011 10.0013 16.837 10.0013 17.5" stroke="currentColor" stroke-width="1.5" stroke-linecap="round" stroke-linejoin="round"></path>
</symbol>
<symbol viewBox="0 0 24 24" fill="none" stroke="currentColor" stroke-width="2" stroke-linecap="round" stroke-linejoin="round" id="book-text">
  <path d="M4 19.5v-15A2.5 2.5 0 0 1 6.5 2H19a1 1 0 0 1 1 1v18a1 1 0 0 1-1 1H6.5a1 1 0 0 1 0-5H20" ></path>
  <path d="M8 11h8" ></path>
  <path d="M8 7h6" ></path>
</symbol>
<symbol viewBox="0 0 24 24" fill="none" stroke="currentColor" stroke-width="2" stroke-linecap="round" stroke-linejoin="round" id="book-user">
  <path d="M4 19.5v-15A2.5 2.5 0 0 1 6.5 2H20v20H6.5a2.5 2.5 0 0 1 0-5H20" ></path>
  <circle cx="12" cy="8" r="2" ></circle>
  <path d="M15 13a3 3 0 1 0-6 0" ></path>
</symbol>
<symbol viewBox="0 0 24 24" fill="none" stroke="currentColor" stroke-width="2" stroke-linecap="round" stroke-linejoin="round" id="boxes">
  <path d="M2.97 12.92A2 2 0 0 0 2 14.63v3.24a2 2 0 0 0 .97 1.71l3 1.8a2 2 0 0 0 2.06 0L12 19v-5.5l-5-3-4.03 2.42Z" ></path>
  <path d="m7 16.5-4.74-2.85" ></path>
  <path d="m7 16.5 5-3" ></path>
  <path d="M7 16.5v5.17" ></path>
  <path d="M12 13.5V19l3.97 2.38a2 2 0 0 0 2.06 0l3-1.8a2 2 0 0 0 .97-1.71v-3.24a2 2 0 0 0-.97-1.71L17 10.5l-5 3Z" ></path>
  <path d="m17 16.5-5-3" ></path>
  <path d="m17 16.5 4.74-2.85" ></path>
  <path d="M17 16.5v5.17" ></path>
  <path d="M7.97 4.42A2 2 0 0 0 7 6.13v4.37l5 3 5-3V6.13a2 2 0 0 0-.97-1.71l-3-1.8a2 2 0 0 0-2.06 0l-3 1.8Z" ></path>
  <path d="M12 8 7.26 5.15" ></path>
  <path d="m12 8 4.74-2.85" ></path>
  <path d="M12 13.5V8" ></path>
</symbol>
<symbol viewBox="0 0 24 24" fill="none" stroke="currentColor" stroke-width="2" stroke-linecap="round" stroke-linejoin="round" id="brick-wall">
  <rect width="18" height="18" x="3" y="3" rx="2" ></rect>
  <path d="M12 9v6" ></path>
  <path d="M16 15v6" ></path>
  <path d="M16 3v6" ></path>
  <path d="M3 15h18" ></path>
  <path d="M3 9h18" ></path>
  <path d="M8 15v6" ></path>
  <path d="M8 3v6" ></path>
</symbol>
<symbol viewBox="0 0 24 24" fill="none" stroke="currentColor" stroke-width="2" stroke-linecap="round" stroke-linejoin="round" id="building-2">
  <path d="M6 22V4a2 2 0 0 1 2-2h8a2 2 0 0 1 2 2v18Z" ></path>
  <path d="M6 12H4a2 2 0 0 0-2 2v6a2 2 0 0 0 2 2h2" ></path>
  <path d="M18 9h2a2 2 0 0 1 2 2v9a2 2 0 0 1-2 2h-2" ></path>
  <path d="M10 6h4" ></path>
  <path d="M10 10h4" ></path>
  <path d="M10 14h4" ></path>
  <path d="M10 18h4" ></path>
</symbol>
<symbol viewBox="0 0 24 24" fill="none" stroke="currentColor" stroke-width="2" stroke-linecap="round" stroke-linejoin="round" id="building">
  <rect width="16" height="20" x="4" y="2" rx="2" ry="2" ></rect>
  <path d="M9 22v-4h6v4" ></path>
  <path d="M8 6h.01" ></path>
  <path d="M16 6h.01" ></path>
  <path d="M12 6h.01" ></path>
  <path d="M12 10h.01" ></path>
  <path d="M12 14h.01" ></path>
  <path d="M16 10h.01" ></path>
  <path d="M16 14h.01" ></path>
  <path d="M8 10h.01" ></path>
  <path d="M8 14h.01" ></path>
</symbol>
<symbol viewBox="0 0 24 24" fill="none" stroke="currentColor" stroke-width="2" stroke-linecap="round" stroke-linejoin="round" id="calendar-clock">
  <path d="M21 7.5V6a2 2 0 0 0-2-2H5a2 2 0 0 0-2 2v14a2 2 0 0 0 2 2h3.5" ></path>
  <path d="M16 2v4" ></path>
  <path d="M8 2v4" ></path>
  <path d="M3 10h5" ></path>
  <path d="M17.5 17.5 16 16.25V14" ></path>
  <path d="M22 16a6 6 0 1 1-12 0 6 6 0 0 1 12 0Z" ></path>
</symbol>
<symbol viewBox="0 0 24 24" fill="none" stroke="currentColor" stroke-width="2" stroke-linecap="round" stroke-linejoin="round" id="calendar-sync">
  <path d="M11 10v4h4" ></path>
  <path d="m11 14 1.535-1.605a5 5 0 0 1 8 1.5" ></path>
  <path d="M16 2v4" ></path>
  <path d="m21 18-1.535 1.605a5 5 0 0 1-8-1.5" ></path>
  <path d="M21 22v-4h-4" ></path>
  <path d="M21 8.5V6a2 2 0 0 0-2-2H5a2 2 0 0 0-2 2v14a2 2 0 0 0 2 2h4.3" ></path>
  <path d="M3 10h4" ></path>
  <path d="M8 2v4" ></path>
</symbol>
<symbol viewBox="0 0 24 24" fill="none" stroke="currentColor" stroke-width="2" stroke-linecap="round" stroke-linejoin="round" id="chart-column-decreasing">
  <path d="M13 17V9" ></path>
  <path d="M18 17v-3" ></path>
  <path d="M3 3v16a2 2 0 0 0 2 2h16" ></path>
  <path d="M8 17V5" ></path>
</symbol>
<symbol viewBox="0 0 24 24" fill="none" stroke="currentColor" stroke-width="2" stroke-linecap="round" stroke-linejoin="round" id="chart-column">
  <path d="M3 3v16a2 2 0 0 0 2 2h16" ></path>
  <path d="M18 17V9" ></path>
  <path d="M13 17V5" ></path>
  <path d="M8 17v-3" ></path>
</symbol>
<symbol viewBox="0 0 24 24" fill="none" stroke="currentColor" stroke-width="2" stroke-linecap="round" stroke-linejoin="round" id="chart-no-axes-combined">
  <path d="M12 16v5" ></path>
  <path d="M16 14v7" ></path>
  <path d="M20 10v11" ></path>
  <path d="m22 3-8.646 8.646a.5.5 0 0 1-.708 0L9.354 8.354a.5.5 0 0 0-.707 0L2 15" ></path>
  <path d="M4 18v3" ></path>
  <path d="M8 14v7" ></path>
</symbol>
<symbol viewBox="0 0 24 24" fill="none" stroke="currentColor" stroke-width="2" stroke-linecap="round" stroke-linejoin="round" id="chart-spline">
  <path d="M3 3v16a2 2 0 0 0 2 2h16" ></path>
  <path d="M7 16c.5-2 1.5-7 4-7 2 0 2 3 4 3 2.5 0 4.5-5 5-7" ></path>
</symbol>
<symbol viewBox="0 0 24 24" fill="fillColor" stroke="currentColor" stroke-width="2" stroke-linecap="round" stroke-linejoin="round" id="check-circle-2">
  <circle cx="12" cy="12" r="10" ></circle>
  <path d="m9 12 2 2 4-4" ></path>
</symbol>
<symbol viewBox="0 0 24 24" fill="none" stroke="currentColor" stroke-width="2" stroke-linecap="round" stroke-linejoin="round" id="check">
  <path d="M20 6 9 17l-5-5" ></path>
</symbol>
<symbol viewBox="0 0 24 24" fill="none" stroke="currentColor" stroke-width="2" stroke-linecap="round" stroke-linejoin="round" id="chevron-down">
  <path d="m6 9 6 6 6-6" ></path>
</symbol>
<symbol viewBox="0 0 24 24" fill="none" stroke="currentColor" stroke-width="2" stroke-linecap="round" stroke-linejoin="round" id="chevron-right">
  <path d="m9 18 6-6-6-6" ></path>
</symbol>
<symbol viewBox="0 0 24 24" fill="none" stroke="currentColor" stroke-width="2" stroke-linecap="round" stroke-linejoin="round" class="lucide lucide-circle-alert" id="circle-alert"><circle cx="12" cy="12" r="10"></circle><line x1="12" x2="12" y1="8" y2="12"></line><line x1="12" x2="12.01" y1="16" y2="16"></line></symbol>
<symbol viewBox="0 0 24 24" fill="none" stroke="currentColor" stroke-width="2" stroke-linecap="round" stroke-linejoin="round" id="circle-arrow-out-up-right">
  <path d="M22 12A10 10 0 1 1 12 2" ></path>
  <path d="M22 2 12 12" ></path>
  <path d="M16 2h6v6" ></path>
</symbol>
<symbol viewBox="0 0 24 24" fill="none" stroke="currentColor" stroke-width="2" stroke-linecap="round" stroke-linejoin="round" id="circle-dollar-sign">
  <circle cx="12" cy="12" r="10" ></circle>
  <path d="M16 8h-6a2 2 0 1 0 0 4h4a2 2 0 1 1 0 4H8" ></path>
  <path d="M12 18V6" ></path>
</symbol>
<symbol viewBox="0 0 24 24" fill="none" stroke="currentColor" stroke-width="2" stroke-linecap="round" stroke-linejoin="round" class="lucide lucide-circle-help" id="circle-help"><circle cx="12" cy="12" r="10"></circle><path d="M9.09 9a3 3 0 0 1 5.83 1c0 2-3 3-3 3"></path><path d="M12 17h.01"></path></symbol>
<symbol viewBox="0 0 24 24" fill="none" stroke="currentColor" stroke-width="2" stroke-linecap="round" stroke-linejoin="round" id="circle-plus">
  <circle cx="12" cy="12" r="10" ></circle>
  <path d="M8 12h8" ></path>
  <path d="M12 8v8" ></path>
</symbol>
<symbol viewBox="0 0 24 24" fill="none" stroke="currentColor" stroke-width="2" stroke-linecap="round" stroke-linejoin="round" id="circle-user-round">
  <path d="M18 20a6 6 0 0 0-12 0" ></path>
  <circle cx="12" cy="10" r="4" ></circle>
  <circle cx="12" cy="12" r="10" ></circle>
</symbol>
<symbol viewBox="0 0 24 24" fill="none" stroke="currentColor" stroke-width="2" stroke-linecap="round" stroke-linejoin="round" id="clipboard-signature">
  <rect width="8" height="4" x="8" y="2" rx="1" ry="1" ></rect>
  <path d="M8 4H6a2 2 0 0 0-2 2v14a2 2 0 0 0 2 2h12a2 2 0 0 0 2-2v-.5" ></path>
  <path d="M16 4h2a2 2 0 0 1 1.73 1" ></path>
  <path d="M18.42 9.61a2.1 2.1 0 1 1 2.97 2.97L16.95 17 13 18l.99-3.95 4.43-4.44Z" ></path>
  <path d="M8 18h1" ></path>
</symbol>
<symbol viewBox="0 0 24 24" fill="none" stroke="currentColor" stroke-width="2" stroke-linecap="round" stroke-linejoin="round" id="cloudy">
  <path d="M17.5 21H9a7 7 0 1 1 6.71-9h1.79a4.5 4.5 0 1 1 0 9Z" ></path>
  <path d="M22 10a3 3 0 0 0-3-3h-2.207a5.502 5.502 0 0 0-10.702.5" ></path>
</symbol>
<symbol viewBox="0 0 24 24" fill="none" stroke="currentColor" stroke-width="2" stroke-linecap="round" stroke-linejoin="round" id="code">
  <polyline points="16 18 22 12 16 6" ></polyline>
  <polyline points="8 6 2 12 8 18" ></polyline>
</symbol>
<symbol viewBox="0 0 24 24" fill="none" stroke="currentColor" stroke-width="2" stroke-linecap="round" stroke-linejoin="round" id="columns-2">
  <rect width="18" height="18" x="3" y="3" rx="2" ></rect>
  <path d="M12 3v18" ></path>
</symbol>
<symbol viewBox="0 0 24 24" fill="none" stroke="currentColor" stroke-width="2" stroke-linecap="round" stroke-linejoin="round" class="lucide lucide-copy" id="copy"><rect width="14" height="14" x="8" y="8" rx="2" ry="2"></rect><path d="M4 16c-1.1 0-2-.9-2-2V4c0-1.1.9-2 2-2h10c1.1 0 2 .9 2 2"></path></symbol>
<symbol viewBox="0 0 24 24" fill="none" stroke="currentColor" stroke-width="2" stroke-linecap="round" stroke-linejoin="round" id="database-backup">
  <ellipse cx="12" cy="5" rx="9" ry="3" ></ellipse>
  <path d="M3 12a9 3 0 0 0 5 2.69" ></path>
  <path d="M21 9.3V5" ></path>
  <path d="M3 5v14a9 3 0 0 0 6.47 2.88" ></path>
  <path d="M12 12v4h4" ></path>
  <path d="M13 20a5 5 0 0 0 9-3 4.5 4.5 0 0 0-4.5-4.5c-1.33 0-2.54.54-3.41 1.41L12 16" ></path>
</symbol>
<symbol viewBox="0 0 24 24" fill="none" stroke="currentColor" stroke-width="2" stroke-linecap="round" stroke-linejoin="round" id="external-link">
  <path d="M18 13v6a2 2 0 0 1-2 2H5a2 2 0 0 1-2-2V8a2 2 0 0 1 2-2h6" ></path>
  <polyline points="15 3 21 3 21 9" ></polyline>
  <line x1="10" x2="21" y1="14" y2="3" ></line>
</symbol>
<symbol viewBox="0 0 24 24" fill="none" stroke="currentColor" stroke-width="2" stroke-linecap="round" stroke-linejoin="round" id="eye-off">
  <path d="M10.733 5.076a10.744 10.744 0 0 1 11.205 6.575 1 1 0 0 1 0 .696 10.747 10.747 0 0 1-1.444 2.49" ></path>
  <path d="M14.084 14.158a3 3 0 0 1-4.242-4.242" ></path>
  <path d="M17.479 17.499a10.75 10.75 0 0 1-15.417-5.151 1 1 0 0 1 0-.696 10.75 10.75 0 0 1 4.446-5.143" ></path>
  <path d="m2 2 20 20" ></path>
</symbol>
<symbol viewBox="0 0 24 24" fill="none" stroke="currentColor" stroke-width="2" stroke-linecap="round" stroke-linejoin="round" class="lucide lucide-eye" id="eye"><path d="M2.062 12.348a1 1 0 0 1 0-.696 10.75 10.75 0 0 1 19.876 0 1 1 0 0 1 0 .696 10.75 10.75 0 0 1-19.876 0"></path><circle cx="12" cy="12" r="3"></circle></symbol>
<symbol viewBox="0 0 24 24" fill="none" stroke="currentColor" stroke-width="2" stroke-linecap="round" stroke-linejoin="round" id="facebook">
  <path d="M18 2h-3a5 5 0 0 0-5 5v3H7v4h3v8h4v-8h3l1-4h-4V7a1 1 0 0 1 1-1h3z" ></path>
</symbol>
<symbol viewBox="0 0 24 24" fill="none" stroke="currentColor" stroke-width="2" stroke-linecap="round" stroke-linejoin="round" id="file-json-2">
  <path d="M4 22h14a2 2 0 0 0 2-2V7l-5-5H6a2 2 0 0 0-2 2v4" ></path>
  <path d="M14 2v4a2 2 0 0 0 2 2h4" ></path>
  <path d="M4 12a1 1 0 0 0-1 1v1a1 1 0 0 1-1 1 1 1 0 0 1 1 1v1a1 1 0 0 0 1 1" ></path>
  <path d="M8 18a1 1 0 0 0 1-1v-1a1 1 0 0 1 1-1 1 1 0 0 1-1-1v-1a1 1 0 0 0-1-1" ></path>
</symbol>
<symbol viewBox="0 0 24 24" fill="none" stroke="currentColor" stroke-width="2" stroke-linecap="round" stroke-linejoin="round" id="file-text">
  <path d="M15 2H6a2 2 0 0 0-2 2v16a2 2 0 0 0 2 2h12a2 2 0 0 0 2-2V7Z" ></path>
  <path d="M14 2v4a2 2 0 0 0 2 2h4" ></path>
  <path d="M10 9H8" ></path>
  <path d="M16 13H8" ></path>
  <path d="M16 17H8" ></path>
</symbol>
<symbol viewBox="0 0 24 24" fill="none" stroke="currentColor" stroke-width="2" stroke-linecap="round" stroke-linejoin="round" id="fingerprint">
  <path d="M12 10a2 2 0 0 0-2 2c0 1.02-.1 2.51-.26 4" ></path>
  <path d="M14 13.12c0 2.38 0 6.38-1 8.88" ></path>
  <path d="M17.29 21.02c.12-.6.43-2.3.5-3.02" ></path>
  <path d="M2 12a10 10 0 0 1 18-6" ></path>
  <path d="M2 16h.01" ></path>
  <path d="M21.8 16c.2-2 .131-5.354 0-6" ></path>
  <path d="M5 19.5C5.5 18 6 15 6 12a6 6 0 0 1 .34-2" ></path>
  <path d="M8.65 22c.21-.66.45-1.32.57-2" ></path>
  <path d="M9 6.8a6 6 0 0 1 9 5.2v2" ></path>
</symbol>
<symbol viewBox="0 0 24 24" fill="none" stroke="currentColor" stroke-width="2" stroke-linecap="round" stroke-linejoin="round" id="fullscreen">
  <path d="M3 7V5a2 2 0 0 1 2-2h2" ></path>
  <path d="M17 3h2a2 2 0 0 1 2 2v2" ></path>
  <path d="M21 17v2a2 2 0 0 1-2 2h-2" ></path>
  <path d="M7 21H5a2 2 0 0 1-2-2v-2" ></path>
  <rect width="10" height="8" x="7" y="8" rx="1" ></rect>
</symbol>
<symbol viewBox="0 0 24 24" fill="none" stroke="currentColor" stroke-width="2" stroke-linecap="round" stroke-linejoin="round" id="gallery-vertical-end">
  <path d="M7 2h10" ></path>
  <path d="M5 6h14" ></path>
  <rect width="18" height="12" x="3" y="10" rx="2" ></rect>
</symbol>
<symbol viewBox="0 0 24 24" fill="none" stroke="currentColor" stroke-width="2" stroke-linecap="round" stroke-linejoin="round" id="globe-lock">
  <path d="M15.686 15A14.5 14.5 0 0 1 12 22a14.5 14.5 0 0 1 0-20 10 10 0 1 0 9.542 13" ></path>
  <path d="M2 12h8.5" ></path>
  <path d="M20 6V4a2 2 0 1 0-4 0v2" ></path>
  <rect width="8" height="5" x="14" y="6" rx="1" ></rect>
</symbol>
<symbol viewBox="0 0 24 24" fill="none" stroke="currentColor" stroke-width="2" stroke-linecap="round" stroke-linejoin="round" id="globe">
  <circle cx="12" cy="12" r="10" ></circle>
  <path d="M12 2a14.5 14.5 0 0 0 0 20 14.5 14.5 0 0 0 0-20" ></path>
  <path d="M2 12h20" ></path>
</symbol>
<symbol viewBox="0 0 24 24" fill="none" stroke="currentColor" stroke-width="2" stroke-linecap="round" stroke-linejoin="round" id="hard-drive">
  <line x1="22" x2="2" y1="12" y2="12" ></line>
  <path d="M5.45 5.11 2 12v6a2 2 0 0 0 2 2h16a2 2 0 0 0 2-2v-6l-3.45-6.89A2 2 0 0 0 16.76 4H7.24a2 2 0 0 0-1.79 1.11z" ></path>
  <line x1="6" x2="6.01" y1="16" y2="16" ></line>
  <line x1="10" x2="10.01" y1="16" y2="16" ></line>
</symbol>
<symbol viewBox="0 0 24 24" fill="none" stroke="currentColor" stroke-width="2" stroke-linecap="round" stroke-linejoin="round" id="hash">
  <line x1="4" x2="20" y1="9" y2="9" ></line>
  <line x1="4" x2="20" y1="15" y2="15" ></line>
  <line x1="10" x2="8" y1="3" y2="21" ></line>
  <line x1="16" x2="14" y1="3" y2="21" ></line>
</symbol>
<symbol viewBox="0 0 24 24" fill="none" stroke="currentColor" stroke-width="2" stroke-linecap="round" stroke-linejoin="round" id="hotel">
  <path d="M10 22v-6.57" ></path>
  <path d="M12 11h.01" ></path>
  <path d="M12 7h.01" ></path>
  <path d="M14 15.43V22" ></path>
  <path d="M15 16a5 5 0 0 0-6 0" ></path>
  <path d="M16 11h.01" ></path>
  <path d="M16 7h.01" ></path>
  <path d="M8 11h.01" ></path>
  <path d="M8 7h.01" ></path>
  <rect x="4" y="2" width="16" height="20" rx="2" ></rect>
</symbol>
<symbol viewBox="0 0 24 24" fill="none" stroke="currentColor" stroke-width="2" stroke-linecap="round" stroke-linejoin="round" id="id-card">
  <path d="M16 10h2" ></path>
  <path d="M16 14h2" ></path>
  <path d="M6.17 15a3 3 0 0 1 5.66 0" ></path>
  <circle cx="9" cy="11" r="2" ></circle>
  <rect x="2" y="5" width="20" height="14" rx="2" ></rect>
</symbol>
<symbol viewBox="0 0 24 24" fill="none" stroke="currentColor" stroke-width="2" stroke-linecap="round" stroke-linejoin="round" class="lucide lucide-image" id="image"><rect width="18" height="18" x="3" y="3" rx="2" ry="2"></rect><circle cx="9" cy="9" r="2"></circle><path d="m21 15-3.086-3.086a2 2 0 0 0-2.828 0L6 21"></path></symbol>
<symbol viewBox="0 0 24 24" fill="none" stroke="currentColor" stroke-width="2" stroke-linecap="round" stroke-linejoin="round" id="inbox">
  <polyline points="22 12 16 12 14 15 10 15 8 12 2 12" ></polyline>
  <path d="M5.45 5.11 2 12v6a2 2 0 0 0 2 2h16a2 2 0 0 0 2-2v-6l-3.45-6.89A2 2 0 0 0 16.76 4H7.24a2 2 0 0 0-1.79 1.11z" ></path>
</symbol>
<symbol viewBox="0 0 24 24" fill="none" stroke="currentColor" stroke-width="2" stroke-linecap="round" stroke-linejoin="round" class="lucide lucide-info" id="info"><circle cx="12" cy="12" r="10"></circle><path d="M12 16v-4"></path><path d="M12 8h.01"></path></symbol>
<symbol viewBox="0 0 24 24" fill="none" stroke="currentColor" stroke-width="2" stroke-linecap="round" stroke-linejoin="round" id="lamp-desk">
  <path d="m14 5-3 3 2 7 8-8-7-2Z" ></path>
  <path d="m14 5-3 3-3-3 3-3 3 3Z" ></path>
  <path d="M9.5 6.5 4 12l3 6" ></path>
  <path d="M3 22v-2c0-1.1.9-2 2-2h4a2 2 0 0 1 2 2v2H3Z" ></path>
</symbol>
<symbol viewBox="0 0 24 24" fill="none" stroke="currentColor" stroke-width="2" stroke-linecap="round" stroke-linejoin="round" id="landmark">
  <line x1="3" x2="21" y1="22" y2="22" ></line>
  <line x1="6" x2="6" y1="18" y2="11" ></line>
  <line x1="10" x2="10" y1="18" y2="11" ></line>
  <line x1="14" x2="14" y1="18" y2="11" ></line>
  <line x1="18" x2="18" y1="18" y2="11" ></line>
  <polygon points="12 2 20 7 4 7" ></polygon>
</symbol>
<symbol viewBox="0 0 24 24" fill="none" stroke="currentColor" stroke-width="2" stroke-linecap="round" stroke-linejoin="round" id="languages">
  <path d="m5 8 6 6" ></path>
  <path d="m4 14 6-6 2-3" ></path>
  <path d="M2 5h12" ></path>
  <path d="M7 2h1" ></path>
  <path d="m22 22-5-10-5 10" ></path>
  <path d="M14 18h6" ></path>
</symbol>
<symbol viewBox="0 0 24 24" fill="none" stroke="currentColor" stroke-width="2" stroke-linecap="round" stroke-linejoin="round" id="layout-dashboard">
  <rect width="7" height="9" x="3" y="3" rx="1" ></rect>
  <rect width="7" height="5" x="14" y="3" rx="1" ></rect>
  <rect width="7" height="9" x="14" y="12" rx="1" ></rect>
  <rect width="7" height="5" x="3" y="16" rx="1" ></rect>
</symbol>
<symbol viewBox="0 0 24 24" fill="none" stroke="currentColor" stroke-width="2" stroke-linecap="round" stroke-linejoin="round" id="layout-grid">
  <rect width="7" height="7" x="3" y="3" rx="1" ></rect>
  <rect width="7" height="7" x="14" y="3" rx="1" ></rect>
  <rect width="7" height="7" x="14" y="14" rx="1" ></rect>
  <rect width="7" height="7" x="3" y="14" rx="1" ></rect>
</symbol>
<symbol viewBox="0 0 24 24" fill="none" stroke="currentColor" stroke-width="2" stroke-linecap="round" stroke-linejoin="round" id="layout-panel-left">
  <rect width="7" height="18" x="3" y="3" rx="1" ></rect>
  <rect width="7" height="7" x="14" y="3" rx="1" ></rect>
  <rect width="7" height="7" x="14" y="14" rx="1" ></rect>
</symbol>
<symbol viewBox="0 0 24 24" fill="none" stroke="currentColor" stroke-width="2" stroke-linecap="round" stroke-linejoin="round" id="life-buoy">
  <circle cx="12" cy="12" r="10" ></circle>
  <path d="m4.93 4.93 4.24 4.24" ></path>
  <path d="m14.83 9.17 4.24-4.24" ></path>
  <path d="m14.83 14.83 4.24 4.24" ></path>
  <path d="m9.17 14.83-4.24 4.24" ></path>
  <circle cx="12" cy="12" r="4" ></circle>
</symbol>
<symbol viewBox="0 0 24 24" fill="none" stroke="currentColor" stroke-width="2" stroke-linecap="round" stroke-linejoin="round" id="lightbulb">
  <path d="M15 14c.2-1 .7-1.7 1.5-2.5 1-.9 1.5-2.2 1.5-3.5A6 6 0 0 0 6 8c0 1 .2 2.2 1.5 3.5.7.7 1.3 1.5 1.5 2.5" ></path>
  <path d="M9 18h6" ></path>
  <path d="M10 22h4" ></path>
</symbol>
<symbol viewBox="0 0 24 24" fill="none" stroke="currentColor" stroke-width="2" stroke-linecap="round" stroke-linejoin="round" id="link">
  <path d="M10 13a5 5 0 0 0 7.54.54l3-3a5 5 0 0 0-7.07-7.07l-1.72 1.71" ></path>
  <path d="M14 11a5 5 0 0 0-7.54-.54l-3 3a5 5 0 0 0 7.07 7.07l1.71-1.71" ></path>
</symbol>
<symbol viewBox="0 0 24 24" fill="none" stroke="currentColor" stroke-width="2" stroke-linecap="round" stroke-linejoin="round" id="linkedin">
  <path d="M16 8a6 6 0 0 1 6 6v7h-4v-7a2 2 0 0 0-2-2 2 2 0 0 0-2 2v7h-4v-7a6 6 0 0 1 6-6z" ></path>
  <rect width="4" height="12" x="2" y="9" ></rect>
  <circle cx="4" cy="4" r="2" ></circle>
</symbol>
<symbol viewBox="0 0 24 24" fill="none" stroke="currentColor" stroke-width="2" stroke-linecap="round" stroke-linejoin="round" id="list-filter">
  <path d="M3 6h18" ></path>
  <path d="M7 12h10" ></path>
  <path d="M10 18h4" ></path>
</symbol>
<symbol viewBox="0 0 24 24" fill="none" stroke="currentColor" stroke-width="2" stroke-linecap="round" stroke-linejoin="round" id="list-restart">
  <path d="M21 6H3" ></path>
  <path d="M7 12H3" ></path>
  <path d="M7 18H3" ></path>
  <path d="M12 18a5 5 0 0 0 9-3 4.5 4.5 0 0 0-4.5-4.5c-1.33 0-2.54.54-3.41 1.41L11 14" ></path>
  <path d="M11 10v4h4" ></path>
</symbol>
<symbol viewBox="0 0 24 24" fill="none" stroke="currentColor" stroke-width="2" stroke-linecap="round" stroke-linejoin="round" id="logs">
  <path d="M13 12h8" ></path>
  <path d="M13 18h8" ></path>
  <path d="M13 6h8" ></path>
  <path d="M3 12h1" ></path>
  <path d="M3 18h1" ></path>
  <path d="M3 6h1" ></path>
  <path d="M8 12h1" ></path>
  <path d="M8 18h1" ></path>
  <path d="M8 6h1" ></path>
</symbol>
<symbol viewBox="0 0 24 24" fill="none" stroke="currentColor" stroke-width="2" stroke-linecap="round" stroke-linejoin="round" id="mail">
  <rect width="20" height="16" x="2" y="4" rx="2" ></rect>
  <path d="m22 7-8.97 5.7a1.94 1.94 0 0 1-2.06 0L2 7" ></path>
</symbol>
<symbol viewBox="0 0 24 24" fill="none" stroke="currentColor" stroke-width="2" stroke-linecap="round" stroke-linejoin="round" id="map-pin">
  <path d="M20 10c0 4.993-5.539 10.193-7.399 11.799a1 1 0 0 1-1.202 0C9.539 20.193 4 14.993 4 10a8 8 0 0 1 16 0" ></path>
  <circle cx="12" cy="10" r="3" ></circle>
</symbol>
<symbol viewBox="0 0 24 24" fill="none" stroke="currentColor" stroke-width="2" stroke-linecap="round" stroke-linejoin="round" id="medal">
  <path d="M7.21 15 2.66 7.14a2 2 0 0 1 .13-2.2L4.4 2.8A2 2 0 0 1 6 2h12a2 2 0 0 1 1.6.8l1.6 2.14a2 2 0 0 1 .14 2.2L16.79 15" ></path>
  <path d="M11 12 5.12 2.2" ></path>
  <path d="m13 12 5.88-9.8" ></path>
  <path d="M8 7h8" ></path>
  <circle cx="12" cy="17" r="5" ></circle>
  <path d="M12 18v-2h-.5" ></path>
</symbol>
<symbol viewBox="0 0 24 24" fill="none" stroke="currentColor" stroke-width="2" stroke-linecap="round" stroke-linejoin="round" id="megaphone">
  <path d="m3 11 18-5v12L3 14v-3z" ></path>
  <path d="M11.6 16.8a3 3 0 1 1-5.8-1.6" ></path>
</symbol>
<symbol viewBox="0 0 24 24" fill="none" stroke="currentColor" stroke-width="2" stroke-linecap="round" stroke-linejoin="round" id="menu">
  <line x1="4" x2="20" y1="12" y2="12" ></line>
  <line x1="4" x2="20" y1="6" y2="6" ></line>
  <line x1="4" x2="20" y1="18" y2="18" ></line>
</symbol>
<symbol viewBox="0 0 24 24" fill="none" stroke="currentColor" stroke-width="2" stroke-linecap="round" stroke-linejoin="round" id="merge">
  <path d="m8 6 4-4 4 4" ></path>
  <path d="M12 2v10.3a4 4 0 0 1-1.172 2.872L4 22" ></path>
  <path d="m20 22-5-5" ></path>
</symbol>
<symbol viewBox="0 0 24 24" fill="none" stroke="currentColor" stroke-width="2" stroke-linecap="round" stroke-linejoin="round" id="message-circle">
  <path d="M7.9 20A9 9 0 1 0 4 16.1L2 22Z" ></path>
</symbol>
<symbol viewBox="0 0 24 24" fill="none" stroke="currentColor" stroke-width="2" stroke-linecap="round" stroke-linejoin="round" id="message-square">
  <path d="M21 15a2 2 0 0 1-2 2H7l-4 4V5a2 2 0 0 1 2-2h14a2 2 0 0 1 2 2z" ></path>
</symbol>
<symbol viewBox="0 0 24 24" fill="none" stroke="currentColor" stroke-width="2" stroke-linecap="round" stroke-linejoin="round" id="messages-square">
  <path d="M14 9a2 2 0 0 1-2 2H6l-4 4V4c0-1.1.9-2 2-2h8a2 2 0 0 1 2 2v5Z" ></path>
  <path d="M18 9h2a2 2 0 0 1 2 2v11l-4-4h-6a2 2 0 0 1-2-2v-1" ></path>
</symbol>
<symbol viewBox="0 0 24 24" fill="none" stroke="currentColor" stroke-width="2" stroke-linecap="round" stroke-linejoin="round" id="monitor">
  <rect width="20" height="14" x="2" y="3" rx="2" ></rect>
  <line x1="8" x2="16" y1="21" y2="21" ></line>
  <line x1="12" x2="12" y1="17" y2="21" ></line>
</symbol>
<symbol viewBox="0 0 24 24" fill="none" id="mouse-pointer-click">
<path d="M7.19995 2.2002L7.99995 5.1002M5.09995 8.0002L2.19995 7.2002M14 4.1002L12 6.0002M5.99995 12.0002L4.09995 14.0002M8.99995 9.0002L14 21.0002L15.8 15.8002L21 14.0002L8.99995 9.0002Z" stroke="currentColor" stroke-width="1.5" stroke-linecap="round" stroke-linejoin="round"></path>
</symbol>
<symbol viewBox="0 0 24 24" fill="none" stroke="currentColor" stroke-width="2" stroke-linecap="round" stroke-linejoin="round" id="mouse-pointer-square">
  <path d="M21 11V5a2 2 0 0 0-2-2H5a2 2 0 0 0-2 2v14a2 2 0 0 0 2 2h6" ></path>
  <path d="m12 12 4 10 1.7-4.3L22 16Z" ></path>
</symbol>
<symbol viewBox="0 0 24 24" fill="none" stroke="currentColor" stroke-width="2" stroke-linecap="round" stroke-linejoin="round" class="lucide lucide-move" id="move"><path d="M12 2v20"></path><path d="m15 19-3 3-3-3"></path><path d="m19 9 3 3-3 3"></path><path d="M2 12h20"></path><path d="m5 9-3 3 3 3"></path><path d="m9 5 3-3 3 3"></path></symbol>
<symbol viewBox="0 0 24 24" fill="none" stroke="currentColor" stroke-width="2" stroke-linecap="round" stroke-linejoin="round" class="lucide lucide-panel-top" id="panel-top"><rect width="18" height="18" x="3" y="3" rx="2"></rect><path d="M3 9h18"></path></symbol>
<symbol viewBox="0 0 24 24" fill="none" stroke="currentColor" stroke-width="2" stroke-linecap="round" stroke-linejoin="round" id="panels-top-left">
  <rect width="18" height="18" x="3" y="3" rx="2" ></rect>
  <path d="M3 9h18" ></path>
  <path d="M9 21V9" ></path>
</symbol>
<symbol viewBox="0 0 24 24" fill="none" stroke="currentColor" stroke-width="2" stroke-linecap="round" stroke-linejoin="round" class="lucide lucide-pencil-line" id="pencil-line"><path d="M12 20h9"></path><path d="M16.376 3.622a1 1 0 0 1 3.002 3.002L7.368 18.635a2 2 0 0 1-.855.506l-2.872.838a.5.5 0 0 1-.62-.62l.838-2.872a2 2 0 0 1 .506-.854z"></path><path d="m15 5 3 3"></path></symbol>
<symbol viewBox="0 0 24 24" fill="none" stroke="currentColor" stroke-width="2" stroke-linecap="round" stroke-linejoin="round" id="pencil-ruler">
  <path d="M13 7 8.7 2.7a2.41 2.41 0 0 0-3.4 0L2.7 5.3a2.41 2.41 0 0 0 0 3.4L7 13" ></path>
  <path d="m8 6 2-2" ></path>
  <path d="m18 16 2-2" ></path>
  <path d="m17 11 4.3 4.3c.94.94.94 2.46 0 3.4l-2.6 2.6c-.94.94-2.46.94-3.4 0L11 17" ></path>
  <path d="M21.174 6.812a1 1 0 0 0-3.986-3.987L3.842 16.174a2 2 0 0 0-.5.83l-1.321 4.352a.5.5 0 0 0 .623.622l4.353-1.32a2 2 0 0 0 .83-.497z" ></path>
  <path d="m15 5 4 4" ></path>
</symbol>
<symbol viewBox="0 0 24 24" fill="none" stroke="currentColor" stroke-width="2" stroke-linecap="round" stroke-linejoin="round" id="plane">
  <path d="M17.8 19.2 16 11l3.5-3.5C21 6 21.5 4 21 3c-1-.5-3 0-4.5 1.5L13 8 4.8 6.2c-.5-.1-.9.1-1.1.5l-.3.5c-.2.5-.1 1 .3 1.3L9 12l-2 3H4l-1 1 3 2 2 3 1-1v-3l3-2 3.5 5.3c.3.4.8.5 1.3.3l.5-.2c.4-.3.6-.7.5-1.2z" ></path>
</symbol>
<symbol viewBox="0 0 24 24" fill="currentColor" stroke="currentColor" stroke-width="2" stroke-linecap="round" stroke-linejoin="round" class="lucide lucide-play" id="play"><polygon points="6 3 20 12 6 21 6 3"></polygon></symbol>
<symbol viewBox="0 0 24 24" fill="none" stroke="currentColor" stroke-width="2" stroke-linecap="round" stroke-linejoin="round" class="lucide lucide-podcast" id="podcast"><circle cx="12" cy="11" r="1"></circle><path d="M11 17a1 1 0 0 1 2 0c0 .5-.34 3-.5 4.5a.5.5 0 0 1-1 0c-.16-1.5-.5-4-.5-4.5Z"></path><path d="M8 14a5 5 0 1 1 8 0"></path><path d="M17 18.5a9 9 0 1 0-10 0"></path></symbol>
<symbol viewBox="0 0 24 24" fill="none" stroke="currentColor" stroke-width="2" stroke-linecap="round" stroke-linejoin="round" id="pointer">
  <path d="M22 14a8 8 0 0 1-8 8" ></path>
  <path d="M18 11v-1a2 2 0 0 0-2-2a2 2 0 0 0-2 2" ></path>
  <path d="M14 10V9a2 2 0 0 0-2-2a2 2 0 0 0-2 2v1" ></path>
  <path d="M10 9.5V4a2 2 0 0 0-2-2a2 2 0 0 0-2 2v10" ></path>
  <path d="M18 11a2 2 0 1 1 4 0v3a8 8 0 0 1-8 8h-2c-2.8 0-4.5-.86-5.99-2.34l-3.6-3.6a2 2 0 0 1 2.83-2.82L7 15" ></path>
</symbol>
<symbol viewBox="0 0 24 24" fill="none" stroke="currentColor" stroke-width="2" stroke-linecap="round" stroke-linejoin="round" id="repeat-2">
  <path d="m2 9 3-3 3 3" ></path>
  <path d="M13 18H7a2 2 0 0 1-2-2V6" ></path>
  <path d="m22 15-3 3-3-3" ></path>
  <path d="M11 6h6a2 2 0 0 1 2 2v10" ></path>
</symbol>
<symbol viewBox="0 0 24 24" fill="none" stroke="currentColor" stroke-width="2" stroke-linecap="round" stroke-linejoin="round" id="replace">
  <path d="M14 4a2 2 0 0 1 2-2" ></path>
  <path d="M16 10a2 2 0 0 1-2-2" ></path>
  <path d="M20 2a2 2 0 0 1 2 2" ></path>
  <path d="M22 8a2 2 0 0 1-2 2" ></path>
  <path d="m3 7 3 3 3-3" ></path>
  <path d="M6 10V5a3 3 0 0 1 3-3h1" ></path>
  <rect x="2" y="14" width="8" height="8" rx="2" ></rect>
</symbol>
<symbol viewBox="0 0 24 24" fill="none" stroke="currentColor" stroke-width="2" stroke-linecap="round" stroke-linejoin="round" class="lucide lucide-route" id="route"><circle cx="6" cy="19" r="3"></circle><path d="M9 19h8.5a3.5 3.5 0 0 0 0-7h-11a3.5 3.5 0 0 1 0-7H15"></path><circle cx="18" cy="5" r="3"></circle></symbol>
<symbol viewBox="0 0 24 24" fill="none" stroke="currentColor" stroke-width="2" stroke-linecap="round" stroke-linejoin="round" id="salad">
  <path d="M7 21h10" ></path>
  <path d="M12 21a9 9 0 0 0 9-9H3a9 9 0 0 0 9 9Z" ></path>
  <path d="M11.38 12a2.4 2.4 0 0 1-.4-4.77 2.4 2.4 0 0 1 3.2-2.77 2.4 2.4 0 0 1 3.47-.63 2.4 2.4 0 0 1 3.37 3.37 2.4 2.4 0 0 1-1.1 3.7 2.51 2.51 0 0 1 .03 1.1" ></path>
  <path d="m13 12 4-4" ></path>
  <path d="M10.9 7.25A3.99 3.99 0 0 0 4 10c0 .73.2 1.41.54 2" ></path>
</symbol>
<symbol viewBox="0 0 24 24" fill="none" stroke="currentColor" stroke-width="2" stroke-linecap="round" stroke-linejoin="round" id="scan-heart">
  <path d="M11.246 16.657a1 1 0 0 0 1.508 0l3.57-4.101A2.75 2.75 0 1 0 12 9.168a2.75 2.75 0 1 0-4.324 3.388z" ></path>
  <path d="M17 3h2a2 2 0 0 1 2 2v2" ></path>
  <path d="M21 17v2a2 2 0 0 1-2 2h-2" ></path>
  <path d="M3 7V5a2 2 0 0 1 2-2h2" ></path>
  <path d="M7 21H5a2 2 0 0 1-2-2v-2" ></path>
</symbol>
<symbol viewBox="0 0 24 24" fill="none" stroke="currentColor" stroke-width="2" stroke-linecap="round" stroke-linejoin="round" id="search">
  <circle cx="11" cy="11" r="8" ></circle>
  <path d="m21 21-4.3-4.3" ></path>
</symbol>
<symbol viewBox="0 0 24 24" fill="none" stroke="currentColor" stroke-width="2" stroke-linecap="round" stroke-linejoin="round" id="shield-check">
  <path d="M20 13c0 5-3.5 7.5-7.66 8.95a1 1 0 0 1-.67-.01C7.5 20.5 4 18 4 13V6a1 1 0 0 1 1-1c2 0 4.5-1.2 6.24-2.72a1.17 1.17 0 0 1 1.52 0C14.51 3.81 17 5 19 5a1 1 0 0 1 1 1z" ></path>
  <path d="m9 12 2 2 4-4" ></path>
</symbol>
<symbol viewBox="0 0 24 24" fill="none" stroke="currentColor" stroke-width="2" stroke-linecap="round" stroke-linejoin="round" id="shield-half">
  <path d="M12 22s8-4 8-10V5l-8-3-8 3v7c0 6 8 10 8 10" ></path>
  <path d="M12 22V2" ></path>
</symbol>
<symbol viewBox="0 0 24 24" fill="none" stroke="currentColor" stroke-width="2" stroke-linecap="round" stroke-linejoin="round" id="ship">
  <path d="M12 10.189V14" ></path>
  <path d="M12 2v3" ></path>
  <path d="M19 13V7a2 2 0 0 0-2-2H7a2 2 0 0 0-2 2v6" ></path>
  <path d="M19.38 20A11.6 11.6 0 0 0 21 14l-8.188-3.639a2 2 0 0 0-1.624 0L3 14a11.6 11.6 0 0 0 2.81 7.76" ></path>
  <path d="M2 21c.6.5 1.2 1 2.5 1 2.5 0 2.5-2 5-2 1.3 0 1.9.5 2.5 1s1.2 1 2.5 1c2.5 0 2.5-2 5-2 1.3 0 1.9.5 2.5 1" ></path>
</symbol>
<symbol viewBox="0 0 24 24" fill="none" stroke="currentColor" stroke-width="2" stroke-linecap="round" stroke-linejoin="round" id="slack">
  <rect width="3" height="8" x="13" y="2" rx="1.5" ></rect>
  <path d="M19 8.5V10h1.5A1.5 1.5 0 1 0 19 8.5" ></path>
  <rect width="3" height="8" x="8" y="14" rx="1.5" ></rect>
  <path d="M5 15.5V14H3.5A1.5 1.5 0 1 0 5 15.5" ></path>
  <rect width="8" height="3" x="14" y="13" rx="1.5" ></rect>
  <path d="M15.5 19H14v1.5a1.5 1.5 0 1 0 1.5-1.5" ></path>
  <rect width="8" height="3" x="2" y="8" rx="1.5" ></rect>
  <path d="M8.5 5H10V3.5A1.5 1.5 0 1 0 8.5 5" ></path>
</symbol>
<symbol viewBox="0 0 24 24" fill="none" stroke="currentColor" stroke-width="2" stroke-linecap="round" stroke-linejoin="round" id="sliders-horizontal">
  <line x1="21" x2="14" y1="4" y2="4" ></line>
  <line x1="10" x2="3" y1="4" y2="4" ></line>
  <line x1="21" x2="12" y1="12" y2="12" ></line>
  <line x1="8" x2="3" y1="12" y2="12" ></line>
  <line x1="21" x2="16" y1="20" y2="20" ></line>
  <line x1="12" x2="3" y1="20" y2="20" ></line>
  <line x1="14" x2="14" y1="2" y2="6" ></line>
  <line x1="8" x2="8" y1="10" y2="14" ></line>
  <line x1="16" x2="16" y1="18" y2="22" ></line>
</symbol>
<symbol viewBox="0 0 24 24" fill="none" stroke="currentColor" stroke-width="2" stroke-linecap="round" stroke-linejoin="round" id="sliders-vertical">
  <line x1="4" x2="4" y1="21" y2="14" ></line>
  <line x1="4" x2="4" y1="10" y2="3" ></line>
  <line x1="12" x2="12" y1="21" y2="12" ></line>
  <line x1="12" x2="12" y1="8" y2="3" ></line>
  <line x1="20" x2="20" y1="21" y2="16" ></line>
  <line x1="20" x2="20" y1="12" y2="3" ></line>
  <line x1="2" x2="6" y1="14" y2="14" ></line>
  <line x1="10" x2="14" y1="8" y2="8" ></line>
  <line x1="18" x2="22" y1="16" y2="16" ></line>
</symbol>
<symbol viewBox="0 0 24 24" fill="none" stroke="currentColor" stroke-width="2" stroke-linecap="round" stroke-linejoin="round" id="sliders">
  <line x1="4" x2="4" y1="21" y2="14" ></line>
  <line x1="4" x2="4" y1="10" y2="3" ></line>
  <line x1="12" x2="12" y1="21" y2="12" ></line>
  <line x1="12" x2="12" y1="8" y2="3" ></line>
  <line x1="20" x2="20" y1="21" y2="16" ></line>
  <line x1="20" x2="20" y1="12" y2="3" ></line>
  <line x1="2" x2="6" y1="14" y2="14" ></line>
  <line x1="10" x2="14" y1="8" y2="8" ></line>
  <line x1="18" x2="22" y1="16" y2="16" ></line>
</symbol>
<symbol viewBox="0 0 24 24" fill="none" stroke="currentColor" stroke-width="2" stroke-linecap="round" stroke-linejoin="round" id="smile">
  <circle cx="12" cy="12" r="10" ></circle>
  <path d="M8 14s1.5 2 4 2 4-2 4-2" ></path>
  <line x1="9" x2="9.01" y1="9" y2="9" ></line>
  <line x1="15" x2="15.01" y1="9" y2="9" ></line>
</symbol>
<symbol viewBox="0 0 24 24" fill="none" stroke="currentColor" stroke-width="2" stroke-linecap="round" stroke-linejoin="round" id="sparkle">
  <path d="m12 3-1.9 5.8a2 2 0 0 1-1.287 1.288L3 12l5.8 1.9a2 2 0 0 1 1.288 1.287L12 21l1.9-5.8a2 2 0 0 1 1.287-1.288L21 12l-5.8-1.9a2 2 0 0 1-1.288-1.287Z" ></path>
</symbol>
<symbol viewBox="0 0 24 24" fill="none" stroke="currentColor" stroke-width="2" stroke-linecap="round" stroke-linejoin="round" class="lucide lucide-sparkles" id="sparkles"><path d="M9.937 15.5A2 2 0 0 0 8.5 14.063l-6.135-1.582a.5.5 0 0 1 0-.962L8.5 9.936A2 2 0 0 0 9.937 8.5l1.582-6.135a.5.5 0 0 1 .963 0L14.063 8.5A2 2 0 0 0 15.5 9.937l6.135 1.581a.5.5 0 0 1 0 .964L15.5 14.063a2 2 0 0 0-1.437 1.437l-1.582 6.135a.5.5 0 0 1-.963 0z"></path><path d="M20 3v4"></path><path d="M22 5h-4"></path><path d="M4 17v2"></path><path d="M5 18H3"></path></symbol>
<symbol viewBox="0 0 24 24" fill="none" stroke="currentColor" stroke-width="2" stroke-linecap="round" stroke-linejoin="round" class="lucide lucide-loader-circle" id="spinner"><path d="M21 12a9 9 0 1 1-6.219-8.56"></path></symbol>
<symbol viewBox="0 0 24 24" fill="none" stroke="currentColor" stroke-width="2" stroke-linecap="round" stroke-linejoin="round" id="split">
  <path d="M16 3h5v5" ></path>
  <path d="M8 3H3v5" ></path>
  <path d="M12 22v-8.3a4 4 0 0 0-1.172-2.872L3 3" ></path>
  <path d="m15 9 6-6" ></path>
</symbol>
<symbol viewBox="0 0 24 24" fill="none" stroke="currentColor" stroke-width="2" stroke-linecap="round" stroke-linejoin="round" id="square-mouse-pointer">
  <path d="M12.034 12.681a.498.498 0 0 1 .647-.647l9 3.5a.5.5 0 0 1-.033.943l-3.444 1.068a1 1 0 0 0-.66.66l-1.067 3.443a.5.5 0 0 1-.943.033z" ></path>
  <path d="M21 11V5a2 2 0 0 0-2-2H5a2 2 0 0 0-2 2v14a2 2 0 0 0 2 2h6" ></path>
</symbol>
<symbol viewBox="0 0 24 24" fill="currentColor" stroke="currentColor" stroke-width="2" stroke-linecap="round" stroke-linejoin="round" id="star-filled">
  <path d="M11.525 2.295a.53.53 0 0 1 .95 0l2.31 4.679a2.123 2.123 0 0 0 1.595 1.16l5.166.756a.53.53 0 0 1 .294.904l-3.736 3.638a2.123 2.123 0 0 0-.611 1.878l.882 5.14a.53.53 0 0 1-.771.56l-4.618-2.428a2.122 2.122 0 0 0-1.973 0L6.396 21.01a.53.53 0 0 1-.77-.56l.881-5.139a2.122 2.122 0 0 0-.611-1.879L2.16 9.795a.53.53 0 0 1 .294-.906l5.165-.755a2.122 2.122 0 0 0 1.597-1.16z" ></path>
</symbol>
<symbol viewBox="0 0 24 24" fill="none" stroke="currentColor" stroke-width="2" stroke-linecap="round" stroke-linejoin="round" id="star">
  <path d="M11.525 2.295a.53.53 0 0 1 .95 0l2.31 4.679a2.123 2.123 0 0 0 1.595 1.16l5.166.756a.53.53 0 0 1 .294.904l-3.736 3.638a2.123 2.123 0 0 0-.611 1.878l.882 5.14a.53.53 0 0 1-.771.56l-4.618-2.428a2.122 2.122 0 0 0-1.973 0L6.396 21.01a.53.53 0 0 1-.77-.56l.881-5.139a2.122 2.122 0 0 0-.611-1.879L2.16 9.795a.53.53 0 0 1 .294-.906l5.165-.755a2.122 2.122 0 0 0 1.597-1.16z" ></path>
</symbol>
<symbol viewBox="0 0 24 24" fill="none" stroke="currentColor" stroke-width="2" stroke-linecap="round" stroke-linejoin="round" class="lucide lucide-store" id="store"><path d="m2 7 4.41-4.41A2 2 0 0 1 7.83 2h8.34a2 2 0 0 1 1.42.59L22 7"></path><path d="M4 12v8a2 2 0 0 0 2 2h12a2 2 0 0 0 2-2v-8"></path><path d="M15 22v-4a2 2 0 0 0-2-2h-2a2 2 0 0 0-2 2v4"></path><path d="M2 7h20"></path><path d="M22 7v3a2 2 0 0 1-2 2a2.7 2.7 0 0 1-1.59-.63.7.7 0 0 0-.82 0A2.7 2.7 0 0 1 16 12a2.7 2.7 0 0 1-1.59-.63.7.7 0 0 0-.82 0A2.7 2.7 0 0 1 12 12a2.7 2.7 0 0 1-1.59-.63.7.7 0 0 0-.82 0A2.7 2.7 0 0 1 8 12a2.7 2.7 0 0 1-1.59-.63.7.7 0 0 0-.82 0A2.7 2.7 0 0 1 4 12a2 2 0 0 1-2-2V7"></path></symbol>
<symbol viewBox="0 0 24 24" fill="none" stroke="currentColor" stroke-width="2" stroke-linecap="round" stroke-linejoin="round" id="swatch-book">
  <path d="M11 17a4 4 0 0 1-8 0V5a2 2 0 0 1 2-2h4a2 2 0 0 1 2 2Z" ></path>
  <path d="M16.7 13H19a2 2 0 0 1 2 2v4a2 2 0 0 1-2 2H7" ></path>
  <path d="M 7 17h.01" ></path>
  <path d="m11 8 2.3-2.3a2.4 2.4 0 0 1 3.404.004L18.6 7.6a2.4 2.4 0 0 1 .026 3.434L9.9 19.8" ></path>
</symbol>
<symbol viewBox="0 0 24 24" fill="none" stroke="currentColor" stroke-width="2" stroke-linecap="round" stroke-linejoin="round" id="table">
  <path d="M12 3v18" ></path>
  <rect width="18" height="18" x="3" y="3" rx="2" ></rect>
  <path d="M3 9h18" ></path>
  <path d="M3 15h18" ></path>
</symbol>
<symbol viewBox="0 0 24 24" fill="none" stroke="currentColor" stroke-width="2" stroke-linecap="round" stroke-linejoin="round" id="tablet-smartphone">
  <rect width="10" height="14" x="3" y="8" rx="2" ></rect>
  <path d="M5 4a2 2 0 0 1 2-2h12a2 2 0 0 1 2 2v16a2 2 0 0 1-2 2h-2.4" ></path>
  <path d="M8 18h.01" ></path>
</symbol>
<symbol viewBox="0 0 24 24" fill="none" stroke="currentColor" stroke-width="2" stroke-linecap="round" stroke-linejoin="round" id="target">
  <circle cx="12" cy="12" r="10" ></circle>
  <circle cx="12" cy="12" r="6" ></circle>
  <circle cx="12" cy="12" r="2" ></circle>
</symbol>
<symbol viewBox="0 0 24 24" fill="none" stroke="currentColor" stroke-width="2" stroke-linecap="round" stroke-linejoin="round" id="text-cursor-input">
  <path d="M5 4h1a3 3 0 0 1 3 3 3 3 0 0 1 3-3h1" ></path>
  <path d="M13 20h-1a3 3 0 0 1-3-3 3 3 0 0 1-3 3H5" ></path>
  <path d="M5 16H4a2 2 0 0 1-2-2v-4a2 2 0 0 1 2-2h1" ></path>
  <path d="M13 8h7a2 2 0 0 1 2 2v4a2 2 0 0 1-2 2h-7" ></path>
  <path d="M9 7v10" ></path>
</symbol>
<symbol viewBox="0 0 24 24" fill="none" stroke="currentColor" stroke-width="2" stroke-linecap="round" stroke-linejoin="round" id="timer">
  <line x1="10" x2="14" y1="2" y2="2" ></line>
  <line x1="12" x2="15" y1="14" y2="11" ></line>
  <circle cx="12" cy="14" r="8" ></circle>
</symbol>
<symbol viewBox="0 0 24 24" fill="none" stroke="currentColor" stroke-width="2" stroke-linecap="round" stroke-linejoin="round" id="tree-palm">
  <path d="M13 8c0-2.76-2.46-5-5.5-5S2 5.24 2 8h2l1-1 1 1h4" ></path>
  <path d="M13 7.14A5.82 5.82 0 0 1 16.5 6c3.04 0 5.5 2.24 5.5 5h-3l-1-1-1 1h-3" ></path>
  <path d="M5.89 9.71c-2.15 2.15-2.3 5.47-.35 7.43l4.24-4.25.7-.7.71-.71 2.12-2.12c-1.95-1.96-5.27-1.8-7.42.35" ></path>
  <path d="M11 15.5c.5 2.5-.17 4.5-1 6.5h4c2-5.5-.5-12-1-14" ></path>
</symbol>
<symbol viewBox="0 0 24 24" fill="none" stroke="currentColor" stroke-width="2" stroke-linecap="round" stroke-linejoin="round" id="trending-up">
  <polyline points="22 7 13.5 15.5 8.5 10.5 2 17" ></polyline>
  <polyline points="16 7 22 7 22 13" ></polyline>
</symbol>
<symbol viewBox="0 0 24 24" fill="none" stroke="currentColor" stroke-width="2" stroke-linecap="round" stroke-linejoin="round" id="trophy">
  <path d="M6 9H4.5a2.5 2.5 0 0 1 0-5H6" ></path>
  <path d="M18 9h1.5a2.5 2.5 0 0 0 0-5H18" ></path>
  <path d="M4 22h16" ></path>
  <path d="M10 14.66V17c0 .55-.47.98-.97 1.21C7.85 18.75 7 20.24 7 22" ></path>
  <path d="M14 14.66V17c0 .55.47.98.97 1.21C16.15 18.75 17 20.24 17 22" ></path>
  <path d="M18 2H6v7a6 6 0 0 0 12 0V2Z" ></path>
</symbol>
<symbol viewBox="0 0 24 24" fill="none" stroke="currentColor" stroke-width="2" stroke-linecap="round" stroke-linejoin="round" id="user-cog">
  <circle cx="18" cy="15" r="3" ></circle>
  <circle cx="9" cy="7" r="4" ></circle>
  <path d="M10 15H6a4 4 0 0 0-4 4v2" ></path>
  <path d="m21.7 16.4-.9-.3" ></path>
  <path d="m15.2 13.9-.9-.3" ></path>
  <path d="m16.6 18.7.3-.9" ></path>
  <path d="m19.1 12.2.3-.9" ></path>
  <path d="m19.6 18.7-.4-1" ></path>
  <path d="m16.8 12.3-.4-1" ></path>
  <path d="m14.3 16.6 1-.4" ></path>
  <path d="m20.7 13.8 1-.4" ></path>
</symbol>
<symbol viewBox="0 0 24 24" fill="none" stroke="currentColor" stroke-width="2" stroke-linecap="round" stroke-linejoin="round" id="user-plus">
  <path d="M16 21v-2a4 4 0 0 0-4-4H6a4 4 0 0 0-4 4v2" ></path>
  <circle cx="9" cy="7" r="4" ></circle>
  <line x1="19" x2="19" y1="8" y2="14" ></line>
  <line x1="22" x2="16" y1="11" y2="11" ></line>
</symbol>
<symbol viewBox="0 0 24 24" fill="none" stroke="currentColor" stroke-width="2" stroke-linecap="round" stroke-linejoin="round" id="user-round-check">
  <path d="M2 21a8 8 0 0 1 13.292-6" ></path>
  <circle cx="10" cy="8" r="5" ></circle>
  <path d="m16 19 2 2 4-4" ></path>
</symbol>
<symbol viewBox="0 0 24 24" fill="none" stroke="currentColor" stroke-width="2" stroke-linecap="round" stroke-linejoin="round" id="user-round-pen">
  <path d="M2 21a8 8 0 0 1 10.821-7.487" ></path>
  <path d="M21.378 16.626a1 1 0 0 0-3.004-3.004l-4.01 4.012a2 2 0 0 0-.506.854l-.837 2.87a.5.5 0 0 0 .62.62l2.87-.837a2 2 0 0 0 .854-.506z" ></path>
  <circle cx="10" cy="8" r="5" ></circle>
</symbol>
<symbol viewBox="0 0 24 24" fill="none" stroke="currentColor" stroke-width="2" stroke-linecap="round" stroke-linejoin="round" class="lucide lucide-user-round" id="user-round"><circle cx="12" cy="8" r="5"></circle><path d="M20 21a8 8 0 0 0-16 0"></path></symbol>
<symbol viewBox="0 0 24 24" fill="none" stroke="currentColor" stroke-width="2" stroke-linecap="round" stroke-linejoin="round" id="user-search">
  <circle cx="10" cy="7" r="4" ></circle>
  <path d="M10.3 15H7a4 4 0 0 0-4 4v2" ></path>
  <circle cx="17" cy="17" r="3" ></circle>
  <path d="m21 21-1.9-1.9" ></path>
</symbol>
<symbol viewBox="0 0 24 24" fill="none" stroke="currentColor" stroke-width="2" stroke-linecap="round" stroke-linejoin="round" id="users-round">
  <path d="M18 21a8 8 0 0 0-16 0" ></path>
  <circle cx="10" cy="8" r="5" ></circle>
  <path d="M22 20c0-3.37-2-6.5-4-8a5 5 0 0 0-.45-8.3" ></path>
</symbol>
<symbol viewBox="0 0 24 24" fill="none" stroke="currentColor" stroke-width="2" stroke-linecap="round" stroke-linejoin="round" id="video">
  <path d="m16 13 5.223 3.482a.5.5 0 0 0 .777-.416V7.87a.5.5 0 0 0-.752-.432L16 10.5" ></path>
  <rect x="2" y="6" width="14" height="12" rx="2" ></rect>
</symbol>
<symbol viewBox="0 0 24 24" fill="none" stroke="currentColor" stroke-width="2" stroke-linecap="round" stroke-linejoin="round" id="webhook">
  <path d="M18 16.98h-5.99c-1.1 0-1.95.94-2.48 1.9A4 4 0 0 1 2 17c.01-.7.2-1.4.57-2" ></path>
  <path d="m6 17 3.13-5.78c.53-.97.1-2.18-.5-3.1a4 4 0 1 1 6.89-4.06" ></path>
  <path d="m12 6 3.13 5.73C15.66 12.7 16.9 13 18 13a4 4 0 0 1 0 8" ></path>
</symbol>
<symbol viewBox="0 0 24 24" fill="none" stroke="currentColor" stroke-width="2" stroke-linecap="round" stroke-linejoin="round" id="wifi-off">
  <path d="M12 20h.01" ></path>
  <path d="M8.5 16.429a5 5 0 0 1 7 0" ></path>
  <path d="M5 12.859a10 10 0 0 1 5.17-2.69" ></path>
  <path d="M19 12.859a10 10 0 0 0-2.007-1.523" ></path>
  <path d="M2 8.82a15 15 0 0 1 4.177-2.643" ></path>
  <path d="M22 8.82a15 15 0 0 0-11.288-3.764" ></path>
  <path d="m2 2 20 20" ></path>
</symbol>
<symbol viewBox="0 0 24 24" fill="none" stroke="currentColor" stroke-width="2" stroke-linecap="round" stroke-linejoin="round" id="wrench">
  <path d="M14.7 6.3a1 1 0 0 0 0 1.4l1.6 1.6a1 1 0 0 0 1.4 0l3.77-3.77a6 6 0 0 1-7.94 7.94l-6.91 6.91a2.12 2.12 0 0 1-3-3l6.91-6.91a6 6 0 0 1 7.94-7.94l-3.76 3.76z" ></path>
</symbol>
<symbol viewBox="0 0 24 24" fill="none" stroke="currentColor" stroke-width="2" stroke-linecap="round" stroke-linejoin="round" id="x">
  <path d="M18 6 6 18" ></path>
  <path d="m6 6 12 12" ></path>
</symbol>
<symbol viewBox="0 0 24 24" fill="none" stroke="currentColor" stroke-width="2" stroke-linecap="round" stroke-linejoin="round" id="zap">
  <path d="M4 14a1 1 0 0 1-.78-1.63l9.9-10.2a.5.5 0 0 1 .86.46l-1.92 6.02A1 1 0 0 0 13 10h7a1 1 0 0 1 .78 1.63l-9.9 10.2a.5.5 0 0 1-.86-.46l1.92-6.02A1 1 0 0 0 11 14z" ></path>
</symbol>
</defs>
</svg>
