<?xml version="1.0" standalone="no"?>
<!DOCTYPE svg PUBLIC "-//W3C//DTD SVG 20010904//EN"
 "http://www.w3.org/TR/2001/REC-SVG-20010904/DTD/svg10.dtd">
<svg version="1.0" xmlns="http://www.w3.org/2000/svg"
 width="172.000000pt" height="172.000000pt" viewBox="0 0 172.000000 172.000000"
 preserveAspectRatio="xMidYMid meet">
<metadata>
Created by potrace 1.14, written by Peter Selinger 2001-2017
</metadata>
<g transform="translate(0.000000,172.000000) scale(0.100000,-0.100000)"
fill="#000000" stroke="none">
<path d="M1577 1614 c-1 -1 -30 -4 -63 -7 -159 -15 -285 -101 -363 -247 l-32
-59 38 -17 c53 -24 202 -28 278 -8 33 9 92 30 130 48 l70 32 33 116 c17 64 32
123 32 132 0 14 -10 16 -61 14 -33 -2 -61 -4 -62 -4z"/>
<path d="M445 1299 c-83 -10 -174 -46 -185 -72 -11 -24 -70 -260 -70 -276 0
-6 30 2 68 16 56 22 84 26 172 27 155 1 148 3 570 -111 124 -33 147 -36 275
-37 123 0 147 2 195 22 30 12 60 25 67 30 13 8 86 309 78 321 -2 5 -26 -2 -52
-15 -82 -40 -149 -53 -258 -48 -104 4 -155 14 -418 83 -225 58 -331 73 -442
60z"/>
<path d="M310 870 c-25 -6 -68 -19 -96 -31 -52 -20 -52 -21 -69 -87 -17 -70
-22 -88 -30 -123 -2 -11 -6 -28 -9 -37 -11 -37 -14 -72 -6 -72 5 0 28 9 53 19
127 55 289 45 577 -35 344 -95 476 -110 614 -70 101 30 100 28 142 202 20 85
34 157 31 160 -3 3 -23 -4 -46 -15 -69 -36 -150 -52 -247 -50 -81 1 -223 21
-243 33 -4 3 -18 7 -32 10 -13 2 -76 18 -139 35 -234 62 -397 82 -500 61z"/>
<path d="M290 459 c-70 -10 -217 -56 -227 -72 -13 -22 -61 -232 -54 -239 11
-12 191 -17 246 -7 65 12 160 60 212 107 22 20 58 63 78 95 37 55 37 58 19 72
-23 17 -124 44 -179 48 -22 1 -65 0 -95 -4z"/>
</g>
</svg>
