<svg width="24" height="24" viewBox="0 0 24 24" fill="none" xmlns="http://www.w3.org/2000/svg">
<path d="M8.51369 18.3306L8.02487 19.1634C7.48221 20.0879 6.70584 20.8399 5.7803 21.3377C4.85476 21.8354 3.81552 22.0598 2.77575 21.9864L2.12588 21.9385L1.00429 21.8121C0.963898 21.7523 1.20883 20.6499 1.73959 18.5049C4.44623 17.2562 6.70443 17.1975 8.51318 18.33L8.51369 18.3306ZM20.671 13.0672L19.7172 17.2949C19.7177 17.3112 19.7138 17.3274 19.7061 17.3416C19.6983 17.3559 19.6869 17.3676 19.6732 17.3756C14.2781 20.4778 7.59923 13.8333 2.20148 16.8419C2.14401 16.8742 2.09119 16.8629 2.08912 16.7945L3.01964 12.8692C3.0191 12.8528 3.02293 12.8366 3.03069 12.8224C3.03846 12.8081 3.04987 12.7964 3.06365 12.7885C8.4588 9.68629 15.3339 16.4346 20.4789 12.9859C20.5292 12.952 20.6695 12.9983 20.671 13.0672ZM21.9418 7.35131L20.9879 11.579C20.9884 11.5954 20.9846 11.6115 20.9768 11.6258C20.969 11.64 20.9577 11.6518 20.9439 11.6597C15.5488 14.7619 8.86995 8.11744 3.47221 11.126C3.41473 11.1583 3.36192 11.147 3.35984 11.0787L4.29036 7.15332C4.28983 7.13696 4.29365 7.12076 4.30142 7.10652C4.30919 7.09228 4.32059 7.08055 4.33438 7.07262C9.72953 3.97043 16.6046 10.7187 21.7497 7.27007C21.7999 7.23617 21.9402 7.28298 21.9418 7.35185V7.35131ZM22.9955 2.01259C23.0406 2.06855 22.7454 3.23711 22.1095 5.51937C19.5453 6.99084 17.3145 7.24478 15.4172 6.28066L15.9449 5.25521C16.3972 4.37642 17.0558 3.63054 17.8595 3.08673C18.6633 2.54292 19.5862 2.21879 20.5426 2.14441L21.9226 2.04434C22.6186 1.99914 22.9764 1.98838 22.9955 2.01259Z" fill="currentColor"/>
</svg>
